<?xml version="1.0" encoding="utf-8"?>
<!-- Svg Vector Icons : http://www.onlinewebfonts.com/icon -->
<!DOCTYPE svg PUBLIC "-//W3C//DTD SVG 1.1//EN" "http://www.w3.org/Graphics/SVG/1.1/DTD/svg11.dtd">
<svg version="1.1" xmlns="http://www.w3.org/2000/svg" xmlns:xlink="http://www.w3.org/1999/xlink" x="0px" y="0px" viewBox="0 0 1000 1000" enable-background="new 0 0 1000 1000" xml:space="preserve">
<metadata> Svg Vector Icons : http://www.onlinewebfonts.com/icon </metadata>
<g><g transform="translate(0.000000,511.000000) scale(0.100000,-0.100000)"><path d="M4361.8,4990.5c-1092.7-149.4-2042.2-622.6-2836-1413.3C816,2867.4,386.4,2073.5,171.6,1071.1C109.3,791,100,650.9,100,106.1c0-541.7,9.3-684.9,68.5-955.7c221-1018,644.4-1802.5,1357.3-2518.5c709.8-706.6,1506.7-1139.4,2518.5-1357.3c270.8-59.1,414-68.5,955.7-68.5s684.9,9.4,955.7,68.5c1998.6,432.7,3443.1,1877.2,3875.8,3875.8c59.2,270.8,68.5,414,68.5,955.7c0,541.7-9.4,684.9-68.5,955.7c-217.9,1011.8-650.6,1808.7-1357.3,2518.5c-712.9,709.8-1509.9,1142.5-2502.9,1351.1C5619.5,5006.1,4716.7,5040.3,4361.8,4990.5z M5429.6,4682.3c1108.3-118.3,2026.7-554.1,2811.1-1335.5C9489,2095.3,9912.4,333.3,9358.3-1329.1c-239.7-719.1-572.8-1257.7-1117.6-1805.6C7123.1-4249.1,5591.5-4709.9,4050.5-4392.3C2683.9-4109.1,1451.1-3134.7,847.1-1855.2C115.6-308,299.2,1491.4,1323.4,2861.1c305.1,407.8,825,884.1,1263.9,1161.2c227.2,140.1,709.8,364.2,990,454.5C4184.4,4676.1,4825.6,4744.6,5429.6,4682.3z"/><path d="M2375.7,3300.1c-189.9-68.5-348.7-189.9-451.4-348.7c-109-161.9-121.4-224.1-59.2-298.9c77.8-96.5,149.4-93.4,236.6,9.4c199.2,239.7,277.1,305.1,401.6,336.2c230.4,62.3,501.2-59.1,613.3-280.2c68.5-130.7,158.8-168.1,252.2-105.8c102.7,65.4,96.5,174.3-18.7,342.4C3122.8,3284.5,2727.4,3424.6,2375.7,3300.1z"/><path d="M7073.3,3297c-161.9-62.3-314.4-180.5-426.5-336.2c-112.1-155.7-118.3-283.3-15.6-348.7c93.4-62.3,183.6-24.9,252.1,105.8c99.6,196.1,376.7,339.3,566.6,295.7c143.2-34.2,289.5-137,367.4-264.6c96.5-149.4,180.5-199.2,264.6-152.5c146.3,77.8,87.1,292.6-146.4,513.7C7720.8,3315.7,7337.9,3396.6,7073.3,3297z"/><path d="M2185.8,2425.3C1136.7,2160.7,554.5,965.3,987.2-40.3c205.5-482.5,681.8-887.2,1201.7-1021.1c367.3-96.5,893.4-43.6,1226.5,118.3l146.3,71.6l-15.6-177.5c-9.3-96.5-3.1-217.9,15.6-270.8l31.1-90.3l-264.6-68.5c-488.7-124.5-996.2-373.6-1432-706.7c-245.9-189.9-286.4-258.4-214.8-370.4c62.3-93.4,302-127.7,890.3-121.4c628.8,6.2,1242.1,158.8,1724.6,426.5l183.7,102.7l171.2-87.2c233.5-118.3,463.8-118.3,697.3,0l171.2,87.2l183.7-102.7c482.5-267.7,1095.8-420.3,1724.7-426.5c588.4-6.2,828.1,28,890.3,121.4c74.7,115.2,31.1,183.7-258.4,401.6c-432.7,323.8-1027.3,603.9-1497.4,703.6l-155.7,34.2l31.1,96.5c18.7,52.9,24.9,174.3,15.6,277.1L6432-862.1l102.7-59.1c308.2-177.5,890.4-239.7,1279.5-140.1c417.1,109,825,404.7,1058.4,768.9c286.4,451.4,361.1,1039.8,193,1528.5c-261.5,762.7-912.2,1235.9-1706,1235.9c-498.1,0-905.9-165-1254.5-513.7c-140.1-137-261.5-295.7-330-429.6L5663,1313.9l-18.7,205.5c-43.6,451.4-326.9,731.6-709.8,697.3c-314.4-31.1-551-314.4-582.1-700.4l-15.6-202.4L4231,1516.3c-208.6,392.2-557.2,697.3-990,862.3C3001.4,2468.9,2462.8,2493.8,2185.8,2425.3z M2917.3,2129.6c591.5-112.1,1083.3-622.6,1179.9-1229.7C4259.1-121.2,3281.6-1011.5,2276-750c-398.5,105.8-762.7,395.4-952.6,765.8c-96.5,180.6-105.8,224.1-105.8,479.4c0,252.2,9.3,302,99.6,488.8c124.5,264.6,330,470.1,594.6,594.6c189.9,90.3,236.6,99.6,504.3,99.6c323.8,0,448.3-43.6,663.1-230.4c267.7-236.6,382.9-719.1,239.7-1011.8C3020.1-186.6,2104.8-87,2104.8,566.8c0,214.8,199.2,410.9,417.2,410.9c99.6,0,255.3-140.1,280.2-252.2c21.8-102.7-80.9-245.9-174.3-245.9c-168.1,0-239.7-208.6-105.8-295.7c62.3-40.5,99.6-43.6,202.3-15.6c653.7,174.3,467,1123.8-221,1120.7c-404.7-3.1-716-317.5-719.1-731.6c-3.1-488.8,386-871.7,881-865.4c660,6.2,1142.5,591.5,1027.3,1245.2c-96.5,557.2-523,977.5-1086.5,1070.9c-189.9,28-501.2,0-672.4-65.4c-121.4-46.7-93.4-9.3,46.7,62.3C2248,2142,2602.9,2188.7,2917.3,2129.6z M7873.3,2067.3c996.2-373.6,1279.5-1681.1,523-2428.2c-585.3-575.9-1463.1-582.1-2060.9-9.3c-305.1,289.5-485.7,744-426.5,1064.7c165,884.1,1270.2,1316.8,1874.1,731.6c189.9-186.8,280.2-395.4,280.2-669.3c3.1-208.6-6.3-252.2-90.3-389.1c-311.3-501.2-1046-460.8-1161.2,68.5c-68.5,317.5,171.2,588.4,460.8,526.1c255.2-56,295.7-482.5,46.7-482.5c-124.5,0-183.7-77.8-174.3-227.2c9.3-158.8,342.4-124.5,519.9,52.9c242.8,242.8,186.8,681.8-115.2,881c-361.2,239.7-887.2,43.6-1042.9-386c-56-158.8-52.9-305.1,6.2-510.5c65.4-227.3,333.1-491.9,557.2-560.4c473.2-133.9,983.7,93.4,1223.4,547.9c74.7,140.1,84.1,189.9,84.1,482.5c0,305.1-6.3,339.3-99.7,532.3c-245.9,501.2-815.6,803.2-1354.2,719.1c-105.8-18.7-224.1-40.5-258.3-52.9c-34.2-9.3-9.4,9.3,52.9,46.7C7026.6,2173.2,7515.3,2201.2,7873.3,2067.3z M5109,1874.3c180.5-80.9,193-143.2,295.7-1351.1c49.8-613.3,93.4-1151.9,93.4-1192.3c0-68.5,9.3-71.6,140.1-56c435.8,62.3,672.4-407.8,354.9-712.9c-84.1-80.9-115.2-90.3-292.6-90.3h-196.2l-34.2-115.2c-46.7-149.4-193-292.6-348.7-339.3c-239.7-74.7-513.7,84.1-591.5,339.3l-34.2,115.2h-196.1c-177.5,0-208.6,9.3-292.6,90.3c-317.5,305.1-74.7,781.4,361.1,716c124.5-18.7,133.9-15.6,133.9,52.9c0,40.5,43.6,575.9,93.4,1192.3c99.6,1179.9,115.2,1254.6,273.9,1338.6C4972,1921,5006.2,1921,5109,1874.3z M5871.7-332.9c24.9-46.7,21.8-59.1-9.4-59.1c-24.9,0-52.9,34.2-59.2,77.8C5784.5-230.1,5821.8-239.5,5871.7-332.9z M4190.6-329.8c0-34.3-21.8-62.3-46.7-62.3c-40.5,0-43.6,12.4-15.6,62.3c18.7,34.2,40.5,62.3,46.7,62.3C4184.4-267.5,4190.6-295.5,4190.6-329.8z"/></g></g>
</svg>